<?xml version="1.0" standalone="no"?>
<!DOCTYPE svg PUBLIC "-//W3C//DTD SVG 20010904//EN"
 "http://www.w3.org/TR/2001/REC-SVG-20010904/DTD/svg10.dtd">
<svg version="1.0" xmlns="http://www.w3.org/2000/svg"
 width="124.000000pt" height="124.000000pt" viewBox="0 0 124.000000 124.000000"
 preserveAspectRatio="xMidYMid meet">
<metadata>
Created by potrace 1.11, written by Peter Selinger 2001-2013
</metadata>
<g transform="translate(0.000000,124.000000) scale(0.100000,-0.100000)"
fill="#000000" stroke="none">
<path d="M292 1225 c-97 -30 -168 -81 -221 -161 -58 -89 -63 -123 -59 -463 l3
-306 32 -66 c39 -80 111 -150 191 -187 l57 -27 308 -3 c342 -4 362 -1 463 63
60 39 104 92 142 172 l27 58 0 321 0 320 -38 76 c-55 113 -141 181 -263 208
-69 16 -588 11 -642 -5z"/>
</g>
</svg>
